<svg xmlns="http://www.w3.org/2000/svg" xmlns:xlink="http://www.w3.org/1999/xlink" width="32.999" height="32.999" viewBox="0 0 32.999 32.999">
  <defs>
    <clipPath id="clip-path">
      <rect id="Rectangle_73" data-name="Rectangle 73" width="32.999" height="32.999"/>
    </clipPath>
  </defs>
  <g id="ball" transform="translate(-98 0)">
    <g id="Group_34" data-name="Group 34" transform="translate(98 0)" clip-path="url(#clip-path)">
      <path id="Path_32" data-name="Path 32" d="M28.169,4.83A16.5,16.5,0,0,0,4.83,28.169,16.5,16.5,0,0,0,28.169,4.83M25.9,4.15a64.585,64.585,0,0,0-14.87,8.628L6.414,10.11a35.562,35.562,0,0,1,14.817-8.4A15.347,15.347,0,0,1,25.9,4.15M5.524,5.524A15.415,15.415,0,0,1,16.5.981a15.675,15.675,0,0,1,2.887.268A36.569,36.569,0,0,0,5.529,9.6L3.305,8.316A15.618,15.618,0,0,1,5.524,5.524M2.813,9.165l13.2,7.618v5.25a63.587,63.587,0,0,1-14.725-8.61,15.333,15.333,0,0,1,1.53-4.259m13.2,22.845a15.529,15.529,0,0,1-14.17-10.4q.338.3.681.595a.491.491,0,1,0,.637-.747c-.627-.534-1.24-1.092-1.827-1.667A15.765,15.765,0,0,1,1.1,14.526a64.582,64.582,0,0,0,14.9,8.568V28.43A35.281,35.281,0,0,1,4.984,22.913a.491.491,0,0,0-.582.79,36.274,36.274,0,0,0,11.607,5.749Zm5.482-.808a15.555,15.555,0,0,1-4.5.808V16.782l4.542-2.622A63.568,63.568,0,0,1,21.491,31.2m5.484-3.249a15.452,15.452,0,0,1-4.441,2.854,64.574,64.574,0,0,0-.084-17.176l1.5-.866a.491.491,0,1,0-.491-.85L16.5,15.933l-4.546-2.625a63.594,63.594,0,0,1,14.812-8.45q.363.321.71.666a15.614,15.614,0,0,1,2.217,2.792L25.5,10.734a.491.491,0,0,0,.491.85l1.074-.62a35.56,35.56,0,0,1-.093,16.989m.977-17.5,2.233-1.289a15.56,15.56,0,0,1-1.893,17.429,36.557,36.557,0,0,0-.34-16.139" transform="translate(0 0)"/>
    </g>
  </g>
</svg>
