<svg id="basketball" xmlns="http://www.w3.org/2000/svg" xmlns:xlink="http://www.w3.org/1999/xlink" width="25.589" height="25.649" viewBox="0 0 25.589 25.649">
  <defs>
    <clipPath id="clip-path">
      <rect id="Rectangle_16" data-name="Rectangle 16" width="25.589" height="25.649"/>
    </clipPath>
  </defs>
  <g id="Group_3" data-name="Group 3" transform="translate(0 0.001)">
    <g id="Group_2" data-name="Group 2" clip-path="url(#clip-path)">
      <path id="Path_7" data-name="Path 7" d="M24.687,8.151a.375.375,0,1,0-.7.277,12.078,12.078,0,0,1,.238,8.123,27.769,27.769,0,0,0-12.1-6.738,10.858,10.858,0,0,1,9.79-4.823A11.95,11.95,0,0,1,23.266,6.9a.375.375,0,1,0,.655-.365,12.773,12.773,0,1,0,.766,1.612M21.193,4.215A11.61,11.61,0,0,0,11.36,9.624a28.187,28.187,0,0,0-3.551-.585A17.969,17.969,0,0,1,15.442,1.08a11.95,11.95,0,0,1,5.751,3.135M12.784.787a12.3,12.3,0,0,1,1.5.092A18.721,18.721,0,0,0,7.011,8.973c-.775-.054-1.555-.076-2.328-.066a18.721,18.721,0,0,0-.122-4.871A11.948,11.948,0,0,1,12.784.787M3.9,4.706a17.915,17.915,0,0,1,.029,4.222c-.871.036-1.747.112-2.612.23A11.95,11.95,0,0,1,3.9,4.706M.75,12.821a12.133,12.133,0,0,1,.344-2.876,27.443,27.443,0,0,1,2.733-.263A17.922,17.922,0,0,1,1.3,16.449,12.075,12.075,0,0,1,.75,12.821M12.784,24.855a11.976,11.976,0,0,1-5.455-1.3,17.927,17.927,0,0,1-1.171-8.906.374.374,0,0,0-.318-.416h0a.376.376,0,0,0-.426.325,18.7,18.7,0,0,0,.894,8.412,12.132,12.132,0,0,1-4.686-5.634A18.657,18.657,0,0,0,4.588,9.658c.7-.012,1.4,0,2.1.046a18.659,18.659,0,0,0-.972,3.087.375.375,0,1,0,.732.162,17.858,17.858,0,0,1,1.029-3.19,27.121,27.121,0,0,1,3.484.539,11.606,11.606,0,0,0,2.884,14.507q-.527.046-1.062.047m8.509-3.525A11.947,11.947,0,0,1,14.9,24.67,10.86,10.86,0,0,1,11.72,10.481a27.016,27.016,0,0,1,12.228,6.841,12,12,0,0,1-2.655,4.008" transform="translate(0 -0.017)"/>
    </g>
  </g>
  <g id="Group_5" data-name="Group 5" transform="translate(0 0)">
    <g id="Group_4" data-name="Group 4" clip-path="url(#clip-path)">
      <path id="Path_8" data-name="Path 8" d="M38.665,17.042a.374.374,0,1,0,.226.41.378.378,0,0,0-.226-.41" transform="translate(-16.949 -7.559)"/>
      <path id="Path_9" data-name="Path 9" d="M41.27,15.847a.374.374,0,1,0-.044.445.378.378,0,0,0,.044-.445" transform="translate(-18.027 -6.96)"/>
      <path id="Path_10" data-name="Path 10" d="M41.574,18.919a.374.374,0,1,0-.111.4.377.377,0,0,0,.111-.4" transform="translate(-18.147 -8.291)"/>
      <path id="Path_11" data-name="Path 11" d="M29.741,41.212a.375.375,0,1,0-.146.46.378.378,0,0,0,.146-.46" transform="translate(-12.894 -18.21)"/>
      <path id="Path_12" data-name="Path 12" d="M26.5,38.69a.375.375,0,1,0-.249.655.378.378,0,0,0,.249-.655" transform="translate(-11.495 -17.149)"/>
      <path id="Path_13" data-name="Path 13" d="M29.365,38.727a.375.375,0,1,0-.358.611.378.378,0,0,0,.358-.611" transform="translate(-12.754 -17.15)"/>
      <path id="Path_14" data-name="Path 14" d="M32.536,39.638a.374.374,0,1,0-.163.47.378.378,0,0,0,.163-.47" transform="translate(-14.136 -17.51)"/>
      <path id="Path_15" data-name="Path 15" d="M4.608,31.68a.375.375,0,1,0-.168.473.378.378,0,0,0,.168-.473" transform="translate(-1.727 -13.975)"/>
      <path id="Path_16" data-name="Path 16" d="M27.133,41.66a.375.375,0,1,0-.169.474.378.378,0,0,0,.169-.474" transform="translate(-11.735 -18.409)"/>
      <path id="Path_17" data-name="Path 17" d="M6.362,33.838a.375.375,0,1,0-.154.465.378.378,0,0,0,.154-.465" transform="translate(-2.507 -14.934)"/>
    </g>
  </g>
</svg>
