<svg id="Changing_rooms" data-name="Changing rooms" xmlns="http://www.w3.org/2000/svg" xmlns:xlink="http://www.w3.org/1999/xlink" width="54.171" height="26.743" viewBox="0 0 54.171 26.743">
  <defs>
    <clipPath id="clip-path">
      <rect id="Rectangle_197" data-name="Rectangle 197" width="54.171" height="26.743"/>
    </clipPath>
  </defs>
  <g id="Group_405" data-name="Group 405" clip-path="url(#clip-path)">
    <path id="Path_63" data-name="Path 63" d="M27.653,6.587A3.705,3.705,0,0,0,26.546,9.22v.592H26.33a.379.379,0,0,0-.379.379v1.084a5.2,5.2,0,0,0-3.223,1.66L22.671,13a13.961,13.961,0,0,1-9.284,4.462C7.28,17.922,0,19.52,0,24.5v1.031a1.21,1.21,0,0,0,2.3.519H51.868a1.21,1.21,0,0,0,2.3-.519V24.5c0-4.98-7.28-6.578-13.388-7.041A13.96,13.96,0,0,1,31.5,13l-.055-.06a5.2,5.2,0,0,0-3.225-1.662V10.191a.379.379,0,0,0-.379-.379h-.257V9.22a2.661,2.661,0,0,1,.8-1.891L30,5.741l.022-.023a3.432,3.432,0,0,0,.628-3.634A3.31,3.31,0,0,0,27.766.006C27.69,0,27.613,0,27.536,0a3.933,3.933,0,0,0-3.928,3.928.519.519,0,0,0,1.038,0,2.894,2.894,0,0,1,2.89-2.89q.086,0,.17,0a2.251,2.251,0,0,1,1.985,1.436,2.4,2.4,0,0,1-.427,2.533ZM51.75,24.5v.512H2.421V24.5c0-2.078,3.213-3.665,8.72-4.38H43.03c5.507.715,8.72,2.3,8.72,4.38" transform="translate(0 0.001)"/>
  </g>
</svg>
