<svg id="food" xmlns="http://www.w3.org/2000/svg" xmlns:xlink="http://www.w3.org/1999/xlink" width="29.227" height="32.916" viewBox="0 0 29.227 32.916">
  <defs>
    <clipPath id="clip-path">
      <rect id="Rectangle_200" data-name="Rectangle 200" width="29.227" height="32.916"/>
    </clipPath>
  </defs>
  <g id="Group_414" data-name="Group 414" clip-path="url(#clip-path)">
    <path id="Path_66" data-name="Path 66" d="M29.227,16.316A14.6,14.6,0,0,0,22.781,4.2,7.408,7.408,0,0,0,18.2.038a.513.513,0,0,0-.1-.02l-.012,0a1.39,1.39,0,0,0-1.056.2,1.249,1.249,0,0,0-.3,1.041l.007.6A14.686,14.686,0,0,0,14.614,1.7c-.255,0-.507.009-.759.022l-.006-.093c0-.013,0-.025,0-.038A1.44,1.44,0,0,0,13.031.374,1.176,1.176,0,0,0,12.5.294a1.375,1.375,0,0,0-.455.117,1.008,1.008,0,0,0-.6.679.5.5,0,0,0-.01.1V11.984a.173.173,0,0,1-.045.12.114.114,0,0,1-.081.037.112.112,0,0,1-.081-.037.172.172,0,0,1-.045-.119V1.436a1.131,1.131,0,0,0-.776-1.11A1.4,1.4,0,0,0,9.925.242a1.447,1.447,0,0,0-.482.084,1.138,1.138,0,0,0-.8,1.1V11.984a.173.173,0,0,1-.046.12.113.113,0,0,1-.079.037H8.507a.12.12,0,0,1-.069-.038A.173.173,0,0,1,8.392,12a.085.085,0,0,0,0-.014V1.19a.1.1,0,0,0,0-.017.965.965,0,0,0-.6-.762A1.37,1.37,0,0,0,7.333.294,1.173,1.173,0,0,0,6.8.374a1.434,1.434,0,0,0-.811,1.209c0,.015,0,.032-.006.05l-.2,3.041A14.615,14.615,0,0,0,7.688,29.186l-.047,1.1V30.3a2.33,2.33,0,0,0,1.04,2.34,2.073,2.073,0,0,0,1.04.274,2.166,2.166,0,0,0,1.039-.267,2.238,2.238,0,0,0,1.134-1.974,14.587,14.587,0,0,0,5.191.042v.011A1.931,1.931,0,0,0,18.122,32.7a2.155,2.155,0,0,0,1.047.215,2.353,2.353,0,0,0,1.043-.294,2.272,2.272,0,0,0,1.122-2.33c-.009-.323-.028-.647-.051-.97a14.611,14.611,0,0,0,7.943-13M7.735,28.085A13.629,13.629,0,0,1,5.69,6.017l-.38,5.65a2.669,2.669,0,0,0,.439,2.065,5.863,5.863,0,0,0,.844.86,6.622,6.622,0,0,1,.807.81,5.009,5.009,0,0,1,.616,1.01,1.747,1.747,0,0,1,.188.674ZM10.9,16.02a2.749,2.749,0,0,0-.265,1.1l.25,13.265s0,.009,0,.013a.1.1,0,0,0,0,.017,1.346,1.346,0,0,1-.607,1.349,1.155,1.155,0,0,1-.555.144,1.063,1.063,0,0,1-.535-.14,1.387,1.387,0,0,1-.54-1.382.508.508,0,0,0,0-.057L9.21,17.127A2.621,2.621,0,0,0,8.935,16a6.036,6.036,0,0,0-.745-1.22,7.516,7.516,0,0,0-.926-.939c-.7-.621-1.094-1.044-.953-2.057,0-.011,0-.022,0-.033L6.989,1.72c.022-.145.072-.436.268-.421.035,0,.112.011.133.046a1.561,1.561,0,0,1-.005.36V11.984a.09.09,0,0,0,0,.018,1.176,1.176,0,0,0,.324.8,1.114,1.114,0,0,0,.77.349l.027,0H8.52a1.119,1.119,0,0,0,.81-.351,1.177,1.177,0,0,0,.325-.814V1.426a.167.167,0,0,1,.127-.153.436.436,0,0,1,.146-.025.4.4,0,0,1,.139.023.161.161,0,0,1,.11.164V11.984a1.178,1.178,0,0,0,.325.814,1.11,1.11,0,0,0,1.621,0,1.177,1.177,0,0,0,.325-.814V1.705c0-.076-.019-.373.04-.422.033-.028.135.011.166.025.121.049.172.3.189.412l.675,10.027a.5.5,0,0,0,.006.051c.136,1-.263,1.425-.955,2.042a7.227,7.227,0,0,0-.975,1,5.853,5.853,0,0,0-.7,1.18m3.717,13.926a13.665,13.665,0,0,1-2.74-.277l-.237-12.561a1.833,1.833,0,0,1,.182-.685,4.822,4.822,0,0,1,.576-.971,6.317,6.317,0,0,1,.845-.859,5.861,5.861,0,0,0,.844-.86,2.668,2.668,0,0,0,.439-2.065l-.6-8.96c.23-.012.46-.02.693-.02a13.7,13.7,0,0,1,2.139.168l.321,26.864a13.66,13.66,0,0,1-2.46.226m5.109,1.8a1.337,1.337,0,0,1-.594.167,1.149,1.149,0,0,1-.558-.112.972.972,0,0,1-.48-1.006.086.086,0,0,0,0-.016c0-.009,0-.017,0-.026l-.352-29.5s0-.009,0-.013c0-.077-.008-.159-.01-.237.076,0,.163.014.23.02A6.773,6.773,0,0,1,22.265,5.61a15.352,15.352,0,0,1,.618,6.094,15.824,15.824,0,0,1-1.338,5.363c-.31.641-1,1.86-1.8,1.948l-.014,0a.5.5,0,0,0-.434.492,40.963,40.963,0,0,0,.542,6.111,43.607,43.607,0,0,1,.49,4.7.451.451,0,0,0,0,.062,1.308,1.308,0,0,1-.609,1.357m1.467-3.486c-.1-.928-.227-1.854-.354-2.773a43.123,43.123,0,0,1-.534-5.574,4.664,4.664,0,0,0,2.149-2.4,16.839,16.839,0,0,0,1.437-5.717,16.876,16.876,0,0,0-.478-5.878,13.628,13.628,0,0,1-2.22,22.347" transform="translate(0 0)" fill-rule="evenodd"/>
    <path id="Path_67" data-name="Path 67" d="M105.56,29.692a15.107,15.107,0,0,1-.51,4.516.518.518,0,0,0,1,.268,16.149,16.149,0,0,0,.543-4.825,13.117,13.117,0,0,0-.938-4.449.517.517,0,1,0-.957.393,12.087,12.087,0,0,1,.861,4.1" transform="translate(-84.405 -20.067)" fill-rule="evenodd"/>
  </g>
</svg>
