<svg id="football" xmlns="http://www.w3.org/2000/svg" xmlns:xlink="http://www.w3.org/1999/xlink" width="25.726" height="25.726" viewBox="0 0 25.726 25.726">
  <defs>
    <clipPath id="clip-path">
      <rect id="Rectangle_76" data-name="Rectangle 76" width="25.726" height="25.726"/>
    </clipPath>
  </defs>
  <g id="Group_42" data-name="Group 42" transform="translate(0 0)" clip-path="url(#clip-path)">
    <path id="Path_35" data-name="Path 35" d="M21.958,3.767A12.863,12.863,0,0,0,0,12.863a12.937,12.937,0,0,0,.3,2.765.381.381,0,0,0,.466.286h0a.383.383,0,0,0,.279-.454,12.166,12.166,0,0,1-.279-2.6c0-.243.008-.485.022-.727l2.166-1.65,4.217.953,1.942,5.976-2.1,3.747-2.833.123A12.073,12.073,0,0,1,1.545,17.15a.382.382,0,1,0-.716.266A12.864,12.864,0,1,0,21.958,3.767m2.879,7.356L23.282,9.938l.673-1.92a11.984,11.984,0,0,1,.882,3.106M12.863.764a12.411,12.411,0,0,1,1.6.1l-1.6,1.161L11.265.868a12.411,12.411,0,0,1,1.6-.1M.892,11.095a11.978,11.978,0,0,1,.86-3.035L2.41,9.938ZM3.153,9.748l-.93-2.655A12.18,12.18,0,0,1,4.307,4.307a12.02,12.02,0,0,1,5.911-3.255L12.481,2.7v4.3L7.375,10.7Zm4.761,1.507,4.949-3.6,1.917,1.392a.382.382,0,1,0,.448-.618l-1.983-1.44V2.7l2.263-1.644a12.01,12.01,0,0,1,5.91,3.255,12.146,12.146,0,0,1,2.065,2.749l-.943,2.691-4.2.948-1.678-1.22a.382.382,0,0,0-.45.618l1.6,1.16-1.89,5.818H9.8ZM4.949,22.015l2.026-.088.7,1.864a12.118,12.118,0,0,1-2.723-1.776m7.914,2.946A12.082,12.082,0,0,1,8.64,24.2l-.985-2.635,2.095-3.729h6.191l2.1,3.729-.992,2.656a12.1,12.1,0,0,1-4.182.74m5.149-1.143.707-1.891,2.056.089a12.053,12.053,0,0,1-2.763,1.8m3.536-2.533-2.861-.124L16.6,17.452l1.956-6.021,4.182-.945,2.2,1.677q.02.348.021.7a12.016,12.016,0,0,1-3.414,8.423" transform="translate(0 0)"/>
  </g>
</svg>
