<svg id="Grandstands" xmlns="http://www.w3.org/2000/svg" xmlns:xlink="http://www.w3.org/1999/xlink" width="43.68" height="33.46" viewBox="0 0 43.68 33.46">
  <defs>
    <clipPath id="clip-path">
      <rect id="Rectangle_617" data-name="Rectangle 617" width="43.68" height="33.46" transform="translate(0 0)"/>
    </clipPath>
  </defs>
  <g id="Group_576" data-name="Group 576" clip-path="url(#clip-path)">
    <path id="Path_5278" data-name="Path 5278" d="M43.68,5a5,5,0,0,0-5-5H36.6a5,5,0,0,0-5,5V9.31a2.174,2.174,0,0,0-.36-.02H29.16a4.939,4.939,0,0,0-1.28.17V5a5,5,0,0,0-5-5H20.8a5,5,0,0,0-5,5V9.31a2.174,2.174,0,0,0-.36-.02H13.36a4.939,4.939,0,0,0-1.28.17V5a5,5,0,0,0-5-5H5A5,5,0,0,0,0,5v9.8a.17.17,0,0,0,.01.07H0v4.65H4.43v3.02H8.36v1.55a.17.17,0,0,0,.01.07H8.36v4.65h5.73v4.65H31.3V28.81h4.94V24.16h-.01a.17.17,0,0,0,.01-.07V22.54h4.72V19.52h2.72V14.87h-.01a.17.17,0,0,0,.01-.07ZM16.8,5a4.005,4.005,0,0,1,4-4h2.08a4.005,4.005,0,0,1,4,4V9.84a.313.313,0,0,1-.1.05,5.163,5.163,0,0,0-2.02,2.02c-.07.14-.14.29-.21.44a5.9,5.9,0,0,0-.29.93,5.669,5.669,0,0,0-.1,1.01v.58H20.44v-.58a5,5,0,0,0-1.46-3.53,4.784,4.784,0,0,0-.54-.47,4.926,4.926,0,0,0-.61-.4c-.14-.07-.29-.14-.44-.21a4.1,4.1,0,0,0-.59-.2Zm3.64,10.8h3.72v2.72H20.44Zm3.72,5.74H20.44V19.52h3.72ZM13.36,10.29h2.08c.12,0,.24.01.36.02a3.388,3.388,0,0,1,1,.23,3.989,3.989,0,0,1,2.64,3.75v9.8H9.36v-9.8a3.976,3.976,0,0,1,1.72-3.27,3.377,3.377,0,0,1,1-.51,3.626,3.626,0,0,1,1.28-.22m-5,11.25H5.43V19.52H8.36Zm0-3.02H1V15.87H8.36Zm.39-6.17a5.9,5.9,0,0,0-.29.93,5.669,5.669,0,0,0-.1,1.01v.51H1V5A4.005,4.005,0,0,1,5,1H7.08a4.005,4.005,0,0,1,4,4V9.84a.313.313,0,0,1-.1.05,5.163,5.163,0,0,0-2.02,2.02c-.07.14-.14.29-.21.44m.61,12.81H19.44v2.65H9.36Zm20.94,7.3H15.09V28.81h5.35V24.16h-.01a.17.17,0,0,0,.01-.07V22.54h3.72v1.55a.17.17,0,0,0,.01.07h-.01v4.65H30.3Zm4.94-4.65H25.16V25.16H35.24Zm0-3.72H25.16v-9.8a3.976,3.976,0,0,1,1.72-3.27,3.377,3.377,0,0,1,1-.51,3.626,3.626,0,0,1,1.28-.22h2.08c.12,0,.24.01.36.02a3.388,3.388,0,0,1,1,.23,3.989,3.989,0,0,1,2.64,3.75Zm4.72-2.55H36.24V19.52h3.72Zm2.72-3.02H36.24V15.87h6.44Zm0-3.72H36.24v-.51a5,5,0,0,0-1.46-3.53,4.784,4.784,0,0,0-.54-.47,4.926,4.926,0,0,0-.61-.4c-.14-.07-.29-.14-.44-.21a4.1,4.1,0,0,0-.59-.2V5a4.005,4.005,0,0,1,4-4h2.08a4.012,4.012,0,0,1,4,4Z"/>
  </g>
</svg>
