<svg xmlns="http://www.w3.org/2000/svg" width="21.5" height="21.5" viewBox="0 0 21.5 21.5">
  <path id="instagram" d="M14.333,10.75A3.585,3.585,0,0,0,10.75,7.167,3.585,3.585,0,0,0,7.167,10.75a3.585,3.585,0,0,0,3.583,3.583,3.585,3.585,0,0,0,3.583-3.583Zm1.931,0a5.5,5.5,0,0,1-5.515,5.515A5.5,5.5,0,0,1,5.235,10.75,5.5,5.5,0,0,1,10.75,5.235a5.5,5.5,0,0,1,5.515,5.515Zm1.512-5.739a1.288,1.288,0,1,1-2.2-.91,1.288,1.288,0,0,1,2.2.91ZM10.75,1.931,9.679,1.924q-.973-.007-1.477,0t-1.351.042a11.038,11.038,0,0,0-1.442.14,5.563,5.563,0,0,0-1,.26A3.661,3.661,0,0,0,2.366,4.409a5.617,5.617,0,0,0-.259,1,11.038,11.038,0,0,0-.14,1.442Q1.932,7.7,1.925,8.2t0,1.477q.007.973.007,1.071t-.007,1.071q-.007.973,0,1.477t.042,1.351a11.038,11.038,0,0,0,.14,1.442,5.584,5.584,0,0,0,.259,1,3.661,3.661,0,0,0,2.044,2.044,5.617,5.617,0,0,0,1,.259,11.039,11.039,0,0,0,1.442.14q.847.035,1.351.042t1.477,0l1.071-.007,1.071.007q.973.007,1.477,0t1.351-.042a11.038,11.038,0,0,0,1.442-.14,5.618,5.618,0,0,0,1-.259,3.661,3.661,0,0,0,2.044-2.044,5.617,5.617,0,0,0,.259-1,11.039,11.039,0,0,0,.14-1.442q.035-.847.042-1.351t0-1.477q-.007-.973-.007-1.071t.007-1.071q.007-.973,0-1.477t-.042-1.351a11.038,11.038,0,0,0-.14-1.442,5.51,5.51,0,0,0-.26-1,3.661,3.661,0,0,0-2.044-2.044,5.617,5.617,0,0,0-1-.259,11.038,11.038,0,0,0-1.442-.14Q13.8,1.932,13.3,1.925t-1.477,0l-1.071.007ZM21.5,10.75q0,3.205-.07,4.437a6.566,6.566,0,0,1-1.736,4.507,6.566,6.566,0,0,1-4.507,1.736q-1.232.07-4.437.07t-4.437-.07a6.566,6.566,0,0,1-4.507-1.736A6.566,6.566,0,0,1,.07,15.187Q0,13.955,0,10.75T.07,6.313A6.566,6.566,0,0,1,1.805,1.805,6.566,6.566,0,0,1,6.313.07Q7.545,0,10.75,0t4.437.07a6.566,6.566,0,0,1,4.507,1.736A6.566,6.566,0,0,1,21.43,6.313Q21.5,7.545,21.5,10.75Z"/>
</svg>
