<svg id="Lighting" xmlns="http://www.w3.org/2000/svg" xmlns:xlink="http://www.w3.org/1999/xlink" width="29.961" height="33.96" viewBox="0 0 29.961 33.96">
  <defs>
    <clipPath id="clip-path">
      <rect id="Rectangle_618" data-name="Rectangle 618" width="29.961" height="33.96" transform="translate(0 0)"/>
    </clipPath>
  </defs>
  <g id="Group_577" data-name="Group 577" clip-path="url(#clip-path)">
    <path id="Path_5279" data-name="Path 5279" d="M23.78,14.73a8.85,8.85,0,1,0-15.8,5.46,36.828,36.828,0,0,1,2.47,3.59v3.23h.33a1.57,1.57,0,0,0,.01,2.19v.73a2.739,2.739,0,0,0,2.01,2.61,2.22,2.22,0,0,0,.7.92,2.261,2.261,0,0,0,1.43.5h.04a2.319,2.319,0,0,0,1.4-.5,2.14,2.14,0,0,0,.7-.92,2.7,2.7,0,0,0,2.01-2.62v-.73a1.534,1.534,0,0,0,.44-1.09,1.577,1.577,0,0,0-.44-1.09h.3l-.01-3.16a41.658,41.658,0,0,1,2.52-3.66,8.7,8.7,0,0,0,1.89-5.46M13.26,19.57l.42-.28.71,2.68,1.03-2.52.32.92.8-.37-1.18,5.51h-.8Zm3.18,11.56-.2.01H13.63l-.2-.01a1.181,1.181,0,0,1-.87-.46h4.75a1.215,1.215,0,0,1-.87.46m1.51-7.82-.07.12v2.08h-.99l1.35-6.29v-.01l.06-.24.4-1.88-1.47-.31-.33,1.56-.37.17-1.01-2.87-.85,2.06-.16-.6-1.57,1.05-.3-1.39-1.53.34,1.84,8.41h-1v-2l-.03-.2-.07-.11a36.049,36.049,0,0,0-2.69-3.94,7.351,7.351,0,1,1,11.55.01,42.176,42.176,0,0,0-2.76,4.04"/>
    <path id="Path_5280" data-name="Path 5280" d="M15.25,5.14a.713.713,0,0,0,.71-.71V.72A.538.538,0,0,0,15.92.5a.735.735,0,0,0-.67-.5.721.721,0,0,0-.68.5.78.78,0,0,0-.04.22V4.43a.715.715,0,0,0,.72.71"/>
    <path id="Path_5281" data-name="Path 5281" d="M20.93,6.53a.274.274,0,0,0,.13-.02.68.68,0,0,0,.48-.33l1.93-3.17a.726.726,0,0,0-.24-.98.691.691,0,0,0-.54-.08.706.706,0,0,0-.45.32L20.32,5.44a.746.746,0,0,0-.1.38.713.713,0,0,0,.71.71"/>
    <path id="Path_5282" data-name="Path 5282" d="M24.35,11a.487.487,0,0,0,.12.01.8.8,0,0,0,.33-.08l3.29-1.72a.709.709,0,0,0,.29-.96.693.693,0,0,0-.42-.35.68.68,0,0,0-.54.05l-3.3,1.72a.711.711,0,0,0-.36.6.677.677,0,0,0,.19.51.726.726,0,0,0,.4.22"/>
    <path id="Path_5283" data-name="Path 5283" d="M29.45,14.9a.508.508,0,0,0-.17-.03l-3.72-.24a.728.728,0,0,0-.73.65.705.705,0,0,0,.16.52.724.724,0,0,0,.5.26l3.68.23h.07a.713.713,0,0,0,.49-.19.732.732,0,0,0,.23-.5.7.7,0,0,0-.51-.7"/>
    <path id="Path_5284" data-name="Path 5284" d="M24.24,20.34a.731.731,0,0,0-1,.18.718.718,0,0,0,.18.99l3.05,2.13a.733.733,0,0,0,.35.12h.06a.7.7,0,0,0,.58-.3.73.73,0,0,0-.18-1Z"/>
    <path id="Path_5285" data-name="Path 5285" d="M8.42,6.2a.716.716,0,0,0,.51.33c.03,0,.06.01.09.01a.73.73,0,0,0,.38-.11.722.722,0,0,0,.24-.98L7.71,2.28a.713.713,0,0,0-.98-.24.722.722,0,0,0-.24.98Z"/>
    <path id="Path_5286" data-name="Path 5286" d="M1.88,9.21l3.29,1.72a.722.722,0,0,0,.32.08.507.507,0,0,0,.13-.02.7.7,0,0,0,.49-.35.725.725,0,0,0,.07-.54.7.7,0,0,0-.35-.44L2.54,7.94a.719.719,0,0,0-.96.3.707.707,0,0,0,.3.97"/>
    <path id="Path_5287" data-name="Path 5287" d="M5.14,15.28a.777.777,0,0,0-.25-.49.7.7,0,0,0-.51-.16l-3.69.23a.392.392,0,0,0-.18.04.711.711,0,0,0-.51.7.721.721,0,0,0,.51.66.711.711,0,0,0,.21.03H.77l3.72-.24a.7.7,0,0,0,.65-.77"/>
    <path id="Path_5288" data-name="Path 5288" d="M5.72,20.34,2.68,22.46a.7.7,0,0,0-.31.59.754.754,0,0,0,.21.51.72.72,0,0,0,.5.2h.05a.686.686,0,0,0,.36-.13l3.05-2.12a.706.706,0,0,0,.17-.99.718.718,0,0,0-.99-.18"/>
  </g>
</svg>
