<svg id="lines" xmlns="http://www.w3.org/2000/svg" xmlns:xlink="http://www.w3.org/1999/xlink" width="50.02" height="32.916" viewBox="0 0 50.02 32.916">
  <defs>
    <clipPath id="clip-path">
      <rect id="Rectangle_616" data-name="Rectangle 616" width="50.02" height="32.916"/>
    </clipPath>
  </defs>
  <path id="Path_5268" data-name="Path 5268" d="M3.044,29.957l.521.854L29.327,15.12l19.136,17.2.669-.744-19.69-17.7Z"/>
  <g id="Group_575" data-name="Group 575">
    <g id="Group_574" data-name="Group 574" clip-path="url(#clip-path)">
      <path id="Path_5269" data-name="Path 5269" d="M30.05,10.42V7.96a3.873,3.873,0,0,0,3-3.96,3.777,3.777,0,0,0-3.5-4,3.777,3.777,0,0,0-3.5,4,3.873,3.873,0,0,0,3,3.96v2.16L0,28.02l.53.85,28.8-17.75,20.02,17.7.67-.75ZM27.05,4a2.789,2.789,0,0,1,2.5-3,2.789,2.789,0,0,1,2.5,3,2.789,2.789,0,0,1-2.5,3,2.789,2.789,0,0,1-2.5-3"/>
      <path id="Path_5270" data-name="Path 5270" d="M29.411,27.916c1.105,0,2,.672,2,1.5s-.895,1.5-2,1.5-2-.672-2-1.5.9-1.5,2-1.5"/>
      <path id="Path_5271" data-name="Path 5271" d="M36.411,28.916c1.1,0,2,.672,2,1.5s-.9,1.5-2,1.5-2-.672-2-1.5.9-1.5,2-1.5"/>
      <path id="Path_5272" data-name="Path 5272" d="M20.411,24.916c1.105,0,2,.672,2,1.5s-.895,1.5-2,1.5-2-.672-2-1.5.9-1.5,2-1.5"/>
      <path id="Path_5273" data-name="Path 5273" d="M33.911,23.916c.828,0,1.5.448,1.5,1s-.672,1-1.5,1-1.5-.448-1.5-1,.672-1,1.5-1"/>
      <path id="Path_5274" data-name="Path 5274" d="M22.911,29.916c.828,0,1.5.448,1.5,1s-.672,1-1.5,1-1.5-.448-1.5-1,.672-1,1.5-1"/>
      <path id="Path_5275" data-name="Path 5275" d="M13.911,28.916c.828,0,1.5.448,1.5,1s-.672,1-1.5,1-1.5-.448-1.5-1,.672-1,1.5-1"/>
      <path id="Path_5276" data-name="Path 5276" d="M27.911,22.916c.828,0,1.5.448,1.5,1s-.672,1-1.5,1-1.5-.448-1.5-1,.672-1,1.5-1"/>
      <path id="Path_5277" data-name="Path 5277" d="M41.911,30.916c.828,0,1.5.448,1.5,1s-.672,1-1.5,1-1.5-.448-1.5-1,.672-1,1.5-1"/>
    </g>
  </g>
</svg>
