<svg xmlns="http://www.w3.org/2000/svg" width="14.836" height="19.957" viewBox="0 0 14.836 19.957">
  <g id="location" transform="translate(-5.627 -1.238)">
    <path id="Path_1" data-name="Path 1" d="M16.084,8.971a2.73,2.73,0,1,0,2.73,2.73A2.73,2.73,0,0,0,16.084,8.971Zm0,4.095A1.365,1.365,0,1,1,17.449,11.7a1.365,1.365,0,0,1-1.365,1.365Z" transform="translate(-3.04 -3.042)"/>
    <path id="Path_2" data-name="Path 2" d="M18.29,3.409A7.418,7.418,0,0,0,6.829,12.7l5.157,7.917a1.264,1.264,0,0,0,2.117,0L19.26,12.7a7.418,7.418,0,0,0-.97-9.295Zm-.173,8.55-5.072,7.787L7.972,11.959a6.053,6.053,0,1,1,10.144,0Z" transform="translate(0 0)"/>
  </g>
</svg>
