<svg xmlns="http://www.w3.org/2000/svg" width="14.532" height="15.649" viewBox="0 0 14.532 15.649">
  <g id="my-account" transform="translate(-212.672 -437.991)">
    <g id="person" transform="translate(209.297 435.741)">
      <path id="Path_5224" data-name="Path 5224" d="M17,3.388a3.732,3.732,0,0,0-5.36-.007A3.7,3.7,0,0,0,10.7,6.2a3.978,3.978,0,0,0,3.622,3.872A3.979,3.979,0,0,0,17.942,6.2,3.684,3.684,0,0,0,17,3.388Z" transform="translate(-3.68)"/>
      <path id="Path_5225" data-name="Path 5225" d="M16.788,26.957H4.492a1.083,1.083,0,0,1-.846-.389A1.234,1.234,0,0,1,3.4,25.551a5.982,5.982,0,0,1,2.661-3.973A8.334,8.334,0,0,1,10.64,20.25a8.334,8.334,0,0,1,4.583,1.327,5.979,5.979,0,0,1,2.661,3.973,1.235,1.235,0,0,1-.251,1.017A1.083,1.083,0,0,1,16.788,26.957Z" transform="translate(0 -9.058)"/>
    </g>
  </g>
</svg>
