<svg id="person-comments" xmlns="http://www.w3.org/2000/svg" width="44.782" height="44.782" viewBox="0 0 44.782 44.782">
  <path id="Path_5210" data-name="Path 5210" d="M4.2,2.8A1.4,1.4,0,0,0,2.8,4.2v8.4a1.4,1.4,0,1,1-2.8,0V4.2A4.2,4.2,0,0,1,4.2,0h8.4a1.4,1.4,0,1,1,0,2.8ZM30.788,1.4a1.4,1.4,0,0,1,1.4-1.4h8.4a4.2,4.2,0,0,1,4.2,4.2v8.4a1.4,1.4,0,0,1-2.8,0V4.2a1.4,1.4,0,0,0-1.4-1.4h-8.4A1.4,1.4,0,0,1,30.788,1.4ZM1.4,30.788a1.4,1.4,0,0,1,1.4,1.4v8.4a1.4,1.4,0,0,0,1.4,1.4h8.4a1.4,1.4,0,1,1,0,2.8H4.2a4.2,4.2,0,0,1-4.2-4.2v-8.4a1.4,1.4,0,0,1,1.4-1.4Zm41.983,0a1.4,1.4,0,0,1,1.4,1.4v8.4a4.2,4.2,0,0,1-4.2,4.2h-8.4a1.4,1.4,0,1,1,0-2.8h8.4a1.4,1.4,0,0,0,1.4-1.4v-8.4A1.4,1.4,0,0,1,43.383,30.788Z" fill-rule="evenodd"/>
  <path id="Path_5211" data-name="Path 5211" d="M6.568,29.311A2.025,2.025,0,0,1,4.5,27.243c0-2.068,2.068-8.27,12.405-8.27s12.405,6.2,12.405,8.27a2.025,2.025,0,0,1-2.068,2.068ZM16.905,16.905a6.2,6.2,0,1,0-6.2-6.2A6.2,6.2,0,0,0,16.905,16.905Z" transform="translate(5.486 5.486)" fill-rule="evenodd"/>
</svg>
