<svg id="shower" xmlns="http://www.w3.org/2000/svg" xmlns:xlink="http://www.w3.org/1999/xlink" width="27.15" height="33.5" viewBox="0 0 27.15 33.5">
  <defs>
    <clipPath id="clip-path">
      <rect id="Rectangle_615" data-name="Rectangle 615" width="27.15" height="33.5"/>
    </clipPath>
  </defs>
  <g id="Group_573" data-name="Group 573" clip-path="url(#clip-path)">
    <path id="Path_5267" data-name="Path 5267" d="M26.9,11.03a.616.616,0,0,0-.37-.13H22.06V9.67a.617.617,0,0,0-.62-.62h-.65V6.98a1.594,1.594,0,0,0-.5-1.17V3.55A3.571,3.571,0,0,0,18.05.25,3.5,3.5,0,0,0,16.75,0H5.13A3.486,3.486,0,0,0,3.84.25a3.565,3.565,0,0,0-2.25,3.3V17.44H1.24v-.6H0v7.39H1.24v-.6h.35V33.5H2.83V23.63H4.31V33.5H5.55V23.63h.01a.617.617,0,0,0,.62-.62V18.06a.617.617,0,0,0-.62-.62L5.55,4.31a.337.337,0,0,1,.34-.34h10.1a.346.346,0,0,1,.35.34v1.5a1.611,1.611,0,0,0-.5,1.17V9.05h-.65a.623.623,0,0,0-.62.62V10.9H10.1a.623.623,0,0,0-.62.62v2.55a.623.623,0,0,0,.62.62H26.53a.636.636,0,0,0,.62-.62V11.53a.615.615,0,0,0-.25-.5M19.26,6.6a.467.467,0,0,1,.1.05l.03.01a.4.4,0,0,1,.16.32V9.05H17.08V6.98a.42.42,0,0,1,.15-.31l.05-.02a.281.281,0,0,1,.11-.05.277.277,0,0,1,.09-.01h1.67a.491.491,0,0,1,.11.01M4.94,22.39H1.24v-3.7h3.7ZM15.99,2.72H5.89A1.586,1.586,0,0,0,4.31,4.31V17.44H2.83V3.55a2.3,2.3,0,0,1,2.3-2.3H16.75a2.309,2.309,0,0,1,2.31,2.3V5.34H17.58V4.31a1.588,1.588,0,0,0-1.59-1.59m-.18,7.57h5.01v.61H15.81Zm10.1,3.16H10.72v-1.3H25.91Z"/>
    <rect id="Rectangle_595" data-name="Rectangle 595" width="1.24" height="2.23" transform="translate(10.86 15.55)"/>
    <rect id="Rectangle_596" data-name="Rectangle 596" width="1.24" height="2.23" transform="translate(10.86 19.01)"/>
    <rect id="Rectangle_597" data-name="Rectangle 597" width="1.24" height="2.24" transform="translate(10.86 22.47)"/>
    <rect id="Rectangle_598" data-name="Rectangle 598" width="1.24" height="2.23" transform="translate(10.86 25.94)"/>
    <rect id="Rectangle_599" data-name="Rectangle 599" width="1.25" height="2.24" transform="translate(14.27 22.47)"/>
    <rect id="Rectangle_600" data-name="Rectangle 600" width="1.25" height="2.23" transform="translate(14.27 19.01)"/>
    <rect id="Rectangle_601" data-name="Rectangle 601" width="1.25" height="2.23" transform="translate(14.27 25.94)"/>
    <rect id="Rectangle_602" data-name="Rectangle 602" width="1.25" height="2.23" transform="translate(14.27 15.55)"/>
    <rect id="Rectangle_603" data-name="Rectangle 603" width="1.24" height="2.23" transform="translate(17.69 25.94)"/>
    <rect id="Rectangle_604" data-name="Rectangle 604" width="1.24" height="2.24" transform="translate(17.69 22.47)"/>
    <rect id="Rectangle_605" data-name="Rectangle 605" width="1.24" height="2.23" transform="translate(17.69 15.55)"/>
    <rect id="Rectangle_606" data-name="Rectangle 606" width="1.24" height="2.23" transform="translate(17.69 19.01)"/>
    <rect id="Rectangle_607" data-name="Rectangle 607" width="1.24" height="2.23" transform="translate(21.12 19.01)"/>
    <rect id="Rectangle_608" data-name="Rectangle 608" width="1.24" height="2.24" transform="translate(21.12 22.47)"/>
    <rect id="Rectangle_609" data-name="Rectangle 609" width="1.24" height="2.23" transform="translate(21.12 15.55)"/>
    <rect id="Rectangle_610" data-name="Rectangle 610" width="1.24" height="2.23" transform="translate(21.12 25.94)"/>
    <rect id="Rectangle_611" data-name="Rectangle 611" width="1.24" height="2.23" transform="translate(24.53 15.55)"/>
    <rect id="Rectangle_612" data-name="Rectangle 612" width="1.24" height="2.23" transform="translate(24.53 19.01)"/>
    <rect id="Rectangle_613" data-name="Rectangle 613" width="1.24" height="2.24" transform="translate(24.53 22.47)"/>
    <rect id="Rectangle_614" data-name="Rectangle 614" width="1.24" height="2.23" transform="translate(24.53 25.94)"/>
  </g>
</svg>
