<svg xmlns="http://www.w3.org/2000/svg" width="39.04" height="28" viewBox="0 0 39.04 28">
  <path id="siatka" d="M1.749,7.75h4.5v5.5h-4.5Zm6,0h4.5v5.5H7.75Zm6,0h5.5v5.5h-5.5Zm7,0h4.5v5.5h-4.5Zm6,0h4.5v5.5h-4.5Zm6,0h4.5v5.5h-4.5Zm-31-6h4.5v4.5h-4.5Zm6,0h4.5v4.5H7.75Zm6,0h5.5v4.5h-5.5Zm7,0h4.5v4.5h-4.5Zm6,0h4.5v4.5h-4.5Zm6,0h4.5v4.5h-4.5ZM37.25,0V.25h-4.5V0h-1.5V.25h-4.5V0h-1.5V.25h-4.5V0h-1.5V.25h-5.5V0h-1.5V.25H7.75V0h-1.5V.25h-4.5V0H.25V.25H0v1.5H.25v4.5H0v1.5H.25v5.5H0v1.5H.25V28h1.5V14.75h35.5V28h1.5V14.75h.29v-1.5h-.29V7.75h.29V6.25h-.29V1.75h.29V.25h-.29V0Z"/>
</svg>
