<svg id="stars" xmlns="http://www.w3.org/2000/svg" xmlns:xlink="http://www.w3.org/1999/xlink" width="13.449" height="12.661" viewBox="0 0 13.449 12.661">
  <defs>
    <clipPath id="clip-path">
      <rect id="Rectangle_619" data-name="Rectangle 619" width="13.449" height="12.661" transform="translate(0 0)"/>
    </clipPath>
  </defs>
  <g id="Group_581" data-name="Group 581" clip-path="url(#clip-path)">
    <path id="Path_5289" data-name="Path 5289" d="M10.316,12.661a.909.909,0,0,1-.392-.089l-3.2-1.646-3.2,1.645a.916.916,0,0,1-1.216-.436.912.912,0,0,1-.067-.579l.6-3.4L.289,5.734A.933.933,0,0,1,.761,4.141l3.574-.508L5.918.5A.886.886,0,0,1,6.425.05a.909.909,0,0,1,.689.038.9.9,0,0,1,.422.423L9.114,3.633l3.551.5a.947.947,0,0,1,.62.393.937.937,0,0,1-.128,1.206L10.614,8.16l.6,3.415a.9.9,0,0,1-.128.668.907.907,0,0,1-.577.4.864.864,0,0,1-.19.021m-.086-.9v0ZM6.721,9.8,10.2,11.589,9.536,7.8l2.833-2.7L8.456,4.549,6.724,1.122,4.993,4.549l-3.914.556L3.913,7.8l-.664,3.786ZM6.815.943l0,0,0,0"/>
  </g>
</svg>
