<svg id="star-half" xmlns="http://www.w3.org/2000/svg" width="12.448" height="11.671" viewBox="0 0 12.448 11.671">
  <path id="Path_43" data-name="Path 43" d="M4.168,4.719l1.7-3.367a.4.4,0,0,1,.721,0l1.7,3.367L12.1,5.26a.418.418,0,0,1,.353.393A.428.428,0,0,1,12.318,6L9.577,8.61l.646,3.68a.413.413,0,0,1-.581.461L6.227,11,2.812,12.751a.4.4,0,0,1-.113.039.419.419,0,0,1-.467-.5l.646-3.68L.137,6A.428.428,0,0,1,0,5.686a.459.459,0,0,1,.065-.235A.4.4,0,0,1,.357,5.26l3.811-.541Zm2.059,5.375a.384.384,0,0,1,.18.044L9.275,11.61l-.54-3.079a.439.439,0,0,1,.127-.393l2.261-2.155L7.97,5.536a.408.408,0,0,1-.306-.224L6.228,2.466l0,0v7.625Z" transform="translate(-0.004 -1.125)" fill-rule="evenodd"/>
</svg>
