<svg xmlns="http://www.w3.org/2000/svg" width="17.657" height="17.657" viewBox="0 0 17.657 17.657">
  <g id="telephone" transform="translate(-1.124)">
    <path id="Path_5226" data-name="Path 5226" d="M3.138,1.116a1.864,1.864,0,0,1,2.789.173L7.841,3.752a1.859,1.859,0,0,1,.337,1.595L7.594,7.685a.724.724,0,0,0,.19.688L10.409,11a.725.725,0,0,0,.688.19l2.338-.584a1.864,1.864,0,0,1,1.6.337l2.463,1.915a1.863,1.863,0,0,1,.174,2.789l-1.105,1.105a2.968,2.968,0,0,1-3.072.75A19.9,19.9,0,0,1,6,12.778,19.9,19.9,0,0,1,1.283,5.293a2.969,2.969,0,0,1,.75-3.074l1.105-1.1ZM13.086.57a.57.57,0,0,1,.57-.57h4.557a.57.57,0,0,1,.57.57V5.126a.57.57,0,0,1-1.139,0V1.945L12.919,6.669a.57.57,0,0,1-.807-.807l4.724-4.723H13.655A.57.57,0,0,1,13.086.57Z" fill-rule="evenodd"/>
  </g>
</svg>
