<svg xmlns="http://www.w3.org/2000/svg" xmlns:xlink="http://www.w3.org/1999/xlink" width="30.698" height="30.771" viewBox="0 0 30.698 30.771">
  <defs>
    <clipPath id="clip-path">
      <rect id="Rectangle_74" data-name="Rectangle 74" width="29.337" height="29.405"/>
    </clipPath>
    <clipPath id="clip-path-2">
      <rect id="Rectangle_75" data-name="Rectangle 75" width="30.698" height="30.77"/>
    </clipPath>
  </defs>
  <g id="tennis" transform="translate(-2895.199 -2994.617)">
    <g id="Group_38" data-name="Group 38" transform="translate(2895.88 2995.3)">
      <g id="Group_37" data-name="Group 37" clip-path="url(#clip-path)">
        <path id="Path_33" data-name="Path 33" d="M27.059,2.292A8.106,8.106,0,0,0,20.376.086,11.861,11.861,0,0,0,13.239,3.6c-.176.175-.346.356-.512.541A3.941,3.941,0,1,0,8.869,9.7,3.969,3.969,0,0,0,9.9,9.632a9.549,9.549,0,0,0-.067,3.735H9.822c-.012,1.177-.266,4.456-1.28,5.471L6.484,20.895a1.036,1.036,0,0,0-1.016.264l-3.2,3.2a.438.438,0,0,0,.619.619l3.2-3.2A.162.162,0,0,1,6.2,21.73a.16.16,0,0,1,.113.047l1.258,1.258a.161.161,0,0,1,0,.227L2.407,28.428a.161.161,0,0,1-.227,0L.922,27.17a.161.161,0,0,1,0-.227l.528-.528a.438.438,0,1,0-.619-.62L.3,26.324a1.037,1.037,0,0,0,0,1.466l1.258,1.258a1.037,1.037,0,0,0,1.465,0l5.166-5.165a1.038,1.038,0,0,0,.264-1.015l2.057-2.058c1.013-1.013,4.293-1.268,5.471-1.28v-.006a9.077,9.077,0,0,0,.9.121q.383.032.77.031a10.706,10.706,0,0,0,4.524-1.046.438.438,0,0,0-.364-.8,9.626,9.626,0,0,1-4.857.938A6.929,6.929,0,0,1,12.55,16.8a7.639,7.639,0,0,1-1.675-7.5,3.942,3.942,0,0,0,2.151-4.159,12.224,12.224,0,0,1,.832-.923A10.99,10.99,0,0,1,20.463.957,7.246,7.246,0,0,1,26.44,2.911c3.108,3.108,2.521,8.753-1.308,12.582a12.121,12.121,0,0,1-1.509,1.281.438.438,0,0,0,.515.708,12.988,12.988,0,0,0,1.613-1.37,11.865,11.865,0,0,0,3.514-7.137,8.107,8.107,0,0,0-2.206-6.683M6.968,7.931a3.05,3.05,0,0,1-.873-1.8A3.068,3.068,0,0,1,8.764,8.806a3.04,3.04,0,0,1-1.8-.875M13.01,18.313a7.573,7.573,0,0,0,.843.5c-.1.013-.206.026-.312.041q-.72.1-1.317.248Zm-1.079-.893c.122.122.249.241.379.354L7.93,22.154,7.2,21.421l4.38-4.381c.113.131.231.257.354.38m-.892-1.08-.786.786q.144-.6.248-1.316.022-.162.042-.317a7.553,7.553,0,0,0,.5.847M11.3,7.931a3.045,3.045,0,0,1-1.66.856,3.941,3.941,0,0,0-3.528-3.53A3.055,3.055,0,0,1,8.629,2.742a3.941,3.941,0,0,0,3.528,3.529,3.048,3.048,0,0,1-.854,1.66m-.921-3.415a3.036,3.036,0,0,1-.875-1.793,3.056,3.056,0,0,1,2.669,2.669,3.029,3.029,0,0,1-1.794-.875" transform="translate(0 -0.014)"/>
      </g>
    </g>
    <g id="Group_40" data-name="Group 40" transform="translate(2895.199 2994.617)">
      <g id="Group_39" data-name="Group 39" clip-path="url(#clip-path-2)">
        <path id="Path_34" data-name="Path 34" d="M32.917,5.081a6.3,6.3,0,0,0-5.2-1.668A10.192,10.192,0,0,0,21.6,6.45a10.191,10.191,0,0,0-3.036,6.116,6.3,6.3,0,0,0,1.668,5.2,6.1,6.1,0,0,0,4.405,1.707q.391,0,.8-.039A10.192,10.192,0,0,0,31.549,16.4a10.2,10.2,0,0,0,3.037-6.116,6.3,6.3,0,0,0-1.669-5.2m-.341.989a4.862,4.862,0,0,1,.905,1.751L32.154,6.492ZM22.292,11.424,24.11,9.606l1.817,1.817L24.11,13.241Zm1.169,2.465-1.817,1.818-1.818-1.818,1.818-1.817Zm1.3-4.931,1.817-1.817,1.818,1.817-1.817,1.817Zm1.817,3.114,1.817,1.817-1.818,1.817-1.817-1.817Zm.648-.648L29.04,9.606l1.817,1.817-1.817,1.817Zm2.465-2.465L31.506,7.14l1.817,1.817-1.818,1.818Zm2.239-3.537-.422.423L30.179,4.518a4.87,4.87,0,0,1,1.749.9m-2.887-.747,1.817,1.818L29.04,8.31,27.223,6.493Zm-1.233-.35c.1-.01.207-.018.311-.023L26.575,5.845,25.6,4.868a8.229,8.229,0,0,1,2.209-.543m-3.1.95,1.218,1.218L24.11,8.31,22.581,6.78a10.077,10.077,0,0,1,2.128-1.505M21.932,7.429l1.529,1.529-1.817,1.818L20.426,9.558a10.1,10.1,0,0,1,1.506-2.129m-2.455,5.227a8.2,8.2,0,0,1,.542-2.209l.977.977-1.543,1.543c.006-.1.013-.207.024-.311m1.1,4.122a4.883,4.883,0,0,1-.905-1.751L21,16.355Zm.648.648L21.644,17l1.327,1.327a4.868,4.868,0,0,1-1.75-.9m2.887.747-1.817-1.817,1.817-1.818,1.817,1.817Zm1.234.349c-.1.011-.208.019-.311.024L26.575,17l.977.977a8.209,8.209,0,0,1-2.209.542m3.1-.949-1.218-1.218,1.817-1.817,1.53,1.529a10.063,10.063,0,0,1-2.129,1.506m2.777-2.154-1.529-1.529,1.817-1.817,1.218,1.218a10.064,10.064,0,0,1-1.505,2.129m2.455-5.227a8.235,8.235,0,0,1-.543,2.209l-.977-.977L33.7,9.88c-.005.1-.013.207-.024.311" transform="translate(-6.175 -1.124)"/>
      </g>
    </g>
  </g>
</svg>
