<svg id="toilets" xmlns="http://www.w3.org/2000/svg" xmlns:xlink="http://www.w3.org/1999/xlink" width="21.035" height="32.916" viewBox="0 0 21.035 32.916">
  <defs>
    <clipPath id="clip-path">
      <rect id="Rectangle_201" data-name="Rectangle 201" width="21.035" height="32.916"/>
    </clipPath>
  </defs>
  <g id="Group_416" data-name="Group 416" clip-path="url(#clip-path)">
    <path id="Path_68" data-name="Path 68" d="M20.41,186.163H.626a.625.625,0,0,0-.625.625,11.065,11.065,0,0,0,5.252,9.49l-1.468,6.643a.626.626,0,0,0,.611.76H16.641a.626.626,0,0,0,.611-.76l-1.468-6.643a11.064,11.064,0,0,0,5.252-9.49.625.625,0,0,0-.625-.625m-5.743,10.861,1.195,5.407H5.175l1.195-5.407a12.145,12.145,0,0,0,8.3,0m-4.149-.52a9.477,9.477,0,0,1-9.248-9.09h18.5a9.477,9.477,0,0,1-9.247,9.09" transform="translate(-0.001 -170.767)"/>
    <path id="Path_69" data-name="Path 69" d="M.625,14.965H20.409a.625.625,0,1,0,0-1.251h-2.65L19.074.688A.625.625,0,0,0,18.452,0H2.583A.626.626,0,0,0,1.96.688L3.275,13.714H.625a.625.625,0,0,0,0,1.251M17.76,1.251l-.151,1.5H3.426l-.151-1.5ZM3.552,4H17.483L16.5,13.714H4.533Z"/>
    <path id="Path_70" data-name="Path 70" d="M57.336,59.856H55.268a1.127,1.127,0,1,0,0,1.251h2.068a.625.625,0,1,0,0-1.251" transform="translate(-48.803 -54.445)"/>
  </g>
</svg>
