<svg xmlns="http://www.w3.org/2000/svg" xmlns:xlink="http://www.w3.org/1999/xlink" width="24.799" height="24.799" viewBox="0 0 24.799 24.799">
  <defs>
    <clipPath id="clip-path">
      <rect id="Rectangle_73" data-name="Rectangle 73" width="24.799" height="24.799"/>
    </clipPath>
  </defs>
  <g id="volleyball" transform="translate(-98)">
    <g id="Group_34" data-name="Group 34" transform="translate(98 0)" clip-path="url(#clip-path)">
      <path id="Path_32" data-name="Path 32" d="M21.169,3.63A12.4,12.4,0,0,0,3.63,21.169,12.4,12.4,0,0,0,21.169,3.63m-1.7-.511A48.536,48.536,0,0,0,8.292,9.6L4.82,7.6A26.725,26.725,0,0,1,15.955,1.286a11.534,11.534,0,0,1,3.512,1.832M4.151,4.151A11.585,11.585,0,0,1,12.4.737a11.78,11.78,0,0,1,2.17.2A27.482,27.482,0,0,0,4.155,7.213L2.484,6.249a11.737,11.737,0,0,1,1.667-2.1M2.114,6.887l9.916,5.725v3.946A47.786,47.786,0,0,1,.965,10.088a11.523,11.523,0,0,1,1.15-3.2m9.916,17.168A11.67,11.67,0,0,1,1.382,16.242q.254.226.512.447a.369.369,0,1,0,.479-.561c-.471-.4-.932-.821-1.373-1.253a11.847,11.847,0,0,1-.17-3.959,48.534,48.534,0,0,0,11.2,6.439v4.01a26.514,26.514,0,0,1-8.285-4.146.369.369,0,0,0-.438.594,27.26,27.26,0,0,0,8.723,4.32Zm4.12-.607a11.689,11.689,0,0,1-3.382.607V12.612l3.413-1.97a47.772,47.772,0,0,1-.031,12.807m4.121-2.441a11.612,11.612,0,0,1-3.338,2.144,48.528,48.528,0,0,0-.063-12.908L18,9.592a.369.369,0,1,0-.369-.639L12.4,11.973,8.983,10A47.791,47.791,0,0,1,20.114,3.65q.272.241.534.5a11.734,11.734,0,0,1,1.666,2.1L19.166,8.067a.369.369,0,0,0,.369.639l.807-.466a26.723,26.723,0,0,1-.07,12.767m.735-13.151,1.678-.969a11.694,11.694,0,0,1-1.423,13.1,27.473,27.473,0,0,0-.255-12.129" transform="translate(0 0)"/>
    </g>
  </g>
</svg>
