<svg xmlns="http://www.w3.org/2000/svg" xmlns:xlink="http://www.w3.org/1999/xlink" width="42.656" height="27.528" viewBox="0 0 42.656 27.528">
  <defs>
    <clipPath id="clip-path">
      <rect id="Rectangle_196" data-name="Rectangle 196" width="42.656" height="27.528" transform="translate(0 0)"/>
    </clipPath>
  </defs>
  <g id="water" transform="translate(0 0)">
    <g id="Group_403" data-name="Group 403" transform="translate(0 0)" clip-path="url(#clip-path)">
      <path id="Path_59" data-name="Path 59" d="M42.514,60.65a.518.518,0,0,0-.6-.084l-1.139.575a6.388,6.388,0,0,1-5.735,0L32.71,59.966a7.354,7.354,0,0,0-6.629,0l-2.327,1.175-.023.011a5.4,5.4,0,0,1-4.809,0l-.023-.011-2.327-1.175a7.354,7.354,0,0,0-6.628,0L7.617,61.141a6.388,6.388,0,0,1-5.735,0L.743,60.566a.517.517,0,0,0-.6.084.5.5,0,0,0-.01.682,7.621,7.621,0,0,0,5.1,2.217,6.578,6.578,0,0,0,2.837-.662l2.327-1.175a6.365,6.365,0,0,1,5.735,0l2.327,1.175.049.022c.077.029.154.054.23.08a6.66,6.66,0,0,0,2.631.56,6.579,6.579,0,0,0,2.837-.662l2.327-1.175a6.365,6.365,0,0,1,5.735,0l2.327,1.175.05.022a7.839,7.839,0,0,0,2.752.516,7.507,7.507,0,0,0,5.13-2.092.5.5,0,0,0-.009-.683" transform="translate(0 -36.021)"/>
      <path id="Path_60" data-name="Path 60" d="M42.514,40.924a.518.518,0,0,0-.6-.084l-1.139.575a6.388,6.388,0,0,1-5.735,0L32.71,40.24a7.354,7.354,0,0,0-6.629,0l-2.327,1.175-.023.011a5.4,5.4,0,0,1-4.809,0l-.023-.011L16.573,40.24a7.354,7.354,0,0,0-6.628,0L7.617,41.415a6.388,6.388,0,0,1-5.735,0L.743,40.84a.517.517,0,0,0-.6.084.5.5,0,0,0-.01.682,7.621,7.621,0,0,0,5.1,2.217,6.578,6.578,0,0,0,2.837-.662l2.327-1.175a6.365,6.365,0,0,1,5.735,0l2.327,1.175.049.022c.077.029.154.054.23.08a6.66,6.66,0,0,0,2.631.56,6.579,6.579,0,0,0,2.837-.662l2.327-1.175a6.365,6.365,0,0,1,5.735,0l2.327,1.175.05.022a7.839,7.839,0,0,0,2.752.516,7.507,7.507,0,0,0,5.13-2.092.5.5,0,0,0-.009-.683" transform="translate(0 -24.014)"/>
      <path id="Path_61" data-name="Path 61" d="M42.514,21.2a.518.518,0,0,0-.6-.084l-1.139.575a6.388,6.388,0,0,1-5.735,0L32.71,20.515a7.354,7.354,0,0,0-6.629,0L23.754,21.69l-.023.011a5.4,5.4,0,0,1-4.809,0L18.9,21.69l-2.327-1.175a7.354,7.354,0,0,0-6.628,0L7.617,21.69a6.388,6.388,0,0,1-5.735,0L.743,21.115a.517.517,0,0,0-.6.084.5.5,0,0,0-.01.682,7.621,7.621,0,0,0,5.1,2.217,6.578,6.578,0,0,0,2.837-.662l2.327-1.175a6.365,6.365,0,0,1,5.735,0l2.327,1.175.049.022c.077.029.154.054.23.08a6.66,6.66,0,0,0,2.631.56,6.579,6.579,0,0,0,2.837-.662l2.327-1.175a6.365,6.365,0,0,1,5.735,0l2.327,1.175.05.022a7.839,7.839,0,0,0,2.752.516,7.507,7.507,0,0,0,5.13-2.092.5.5,0,0,0-.009-.683" transform="translate(0 -12.007)"/>
      <path id="Path_62" data-name="Path 62" d="M42.514,1.473a.518.518,0,0,0-.6-.084l-1.139.575a6.388,6.388,0,0,1-5.735,0L32.71.789a7.354,7.354,0,0,0-6.629,0L23.754,1.964l-.023.011a5.4,5.4,0,0,1-4.809,0L18.9,1.964,16.573.789a7.354,7.354,0,0,0-6.628,0L7.617,1.964a6.388,6.388,0,0,1-5.735,0L.743,1.389a.517.517,0,0,0-.6.084.5.5,0,0,0-.01.682,7.621,7.621,0,0,0,5.1,2.217A6.578,6.578,0,0,0,8.064,3.71l2.327-1.175a6.365,6.365,0,0,1,5.735,0L18.453,3.71l.049.022c.077.029.154.054.23.08a6.66,6.66,0,0,0,2.631.56A6.579,6.579,0,0,0,24.2,3.71l2.327-1.175a6.365,6.365,0,0,1,5.735,0L34.591,3.71l.05.022a7.839,7.839,0,0,0,2.752.516,7.507,7.507,0,0,0,5.13-2.092.5.5,0,0,0-.009-.683" transform="translate(0 0)"/>
    </g>
  </g>
</svg>
