<svg xmlns="http://www.w3.org/2000/svg" width="18.21" height="16.897" viewBox="0 0 18.21 16.897">
  <g id="website" transform="translate(-3.75 -1)">
    <path id="Path_5228" data-name="Path 5228" d="M19.921,8.588a4.394,4.394,0,0,1-.874.087h-.3a6.94,6.94,0,0,1-.146,3.5,9.324,9.324,0,0,1-2.914-.239,1.358,1.358,0,0,0-.192-.693,10.833,10.833,0,0,0,1.62-3.019,4.365,4.365,0,0,1-.763-.478,9.906,9.906,0,0,1-1.521,2.914,1.329,1.329,0,0,0-1.5.332,5.219,5.219,0,0,1-.583-.367A9.324,9.324,0,0,1,9.874,7.574a1.311,1.311,0,0,0,.274-1.031,9.906,9.906,0,0,1,4.971-.361,4.33,4.33,0,0,1-.326-.927,10.815,10.815,0,0,0-5.07.524,1.358,1.358,0,0,0-.664-.355H8.913c-.07-.245-.134-.489-.186-.74s-.082-.472-.111-.711a6.946,6.946,0,0,1,6.1-.251,4.341,4.341,0,0,1,.309-1.165A8.158,8.158,0,0,0,3.75,10.132a4.9,4.9,0,0,0,.041.775,8.158,8.158,0,1,0,16.13-2.331ZM7.835,4.462a2.066,2.066,0,0,0,.058.373c.052.256.122.507.192.758A1.329,1.329,0,0,0,7.444,6.9,10.676,10.676,0,0,0,5,9.095,6.993,6.993,0,0,1,7.835,4.462Zm0,9.155a1.364,1.364,0,0,0-.909,1.026H6.553a6.958,6.958,0,0,1-1.608-3.974l.064-.111a9.848,9.848,0,0,1,2.8-2.85,1.346,1.346,0,0,0,1.329.367,10.215,10.215,0,0,0,3.118,3.292c.239.157.484.3.728.443a1.352,1.352,0,0,0,.1.653,9.871,9.871,0,0,1-3.613,1.812,1.364,1.364,0,0,0-1.643-.647Zm4.079,3.5a6.946,6.946,0,0,1-3.386-.88l.163-.035a1.364,1.364,0,0,0,.915-1.043,10.74,10.74,0,0,0,4.079-2.04,1.334,1.334,0,0,0,1.748-.361,10.145,10.145,0,0,0,2.517.326h.309a6.993,6.993,0,0,1-6.352,4.044Z" transform="translate(0 -0.391)"/>
    <path id="Path_5229" data-name="Path 5229" d="M30.827,3.914A2.914,2.914,0,1,1,27.914,1,2.914,2.914,0,0,1,30.827,3.914Z" transform="translate(-8.867)"/>
  </g>
</svg>
